<svg xmlns="http://www.w3.org/2000/svg" viewBox="0 0 510 510"><defs><style>.cls-1,.cls-2{fill:none;stroke-miterlimit:10;stroke-width:100px;}.cls-1{stroke:#4d4d4d;}.cls-2{stroke:#db7fca;}.cls-3{fill:#db7fca;}</style></defs><title>editing-percentage</title><g id="background"><circle class="cls-1" cx="255" cy="255" r="205"/></g><g id="front"><path class="cls-2" d="M261,55c113.22,0,205,91.78,205,205S374.22,465,261,465,56,373.22,56,260c0-50.11,18.55-95.56,47.84-131.64C115,114.57,123.7,107.75,139,95c7.36-6.13,21.26-13.3,32-19a246.09,246.09,0,0,1,28-13c13.3-5.1,22-5.88,30-8" transform="translate(-6 -5)"/><path class="cls-3" d="M191.76,168.5v11.16a17.6,17.6,0,0,0,.18,2.88,2.86,2.86,0,0,0,.63,1.53,2.16,2.16,0,0,0,1.33.62,17.79,17.79,0,0,0,2.36.13,6.36,6.36,0,0,0,3.26-.85,9.79,9.79,0,0,0,2.72-2.52A34.25,34.25,0,0,0,205,177h1.32l-2.06,9.19H184v-1.39a6.26,6.26,0,0,0,2.23-.4,2,2,0,0,0,1.09-1.14,6.18,6.18,0,0,0,.32-2.27v-25.1a8.44,8.44,0,0,0-.29-2.59,1.8,1.8,0,0,0-1-1.11,8.78,8.78,0,0,0-2.34-.42V150.4h19.48l2,8.09h-1.19a15.39,15.39,0,0,0-2.33-3.36,11.44,11.44,0,0,0-3.08-2.42,7.53,7.53,0,0,0-3.6-.92,4.16,4.16,0,0,0-2.26.5,2.36,2.36,0,0,0-1,1.38,9.17,9.17,0,0,0-.25,2.34v11.06h3.32q4.33,0,4.38-6.11h1.16v13.45h-1a9.57,9.57,0,0,0-1.12-4.51,3.2,3.2,0,0,0-2.85-1.4Zm-3.57-12.39v24.54a9.84,9.84,0,0,1-.28,2.72,3.77,3.77,0,0,1-.84,1.45,1.73,1.73,0,0,0,1.77-1.11,10.83,10.83,0,0,0,.4-3.49V155.65a5.59,5.59,0,0,0-.48-2.85,2,2,0,0,0-1.69-.75,2.79,2.79,0,0,1,.86,1.35A10.3,10.3,0,0,1,188.19,156.11Zm11.07,14v-5a4.33,4.33,0,0,1-2.34,2.49,3.63,3.63,0,0,1,2.34,2.49Zm2.68-18.36h-3a9.41,9.41,0,0,1,2.19,1.53,25.06,25.06,0,0,1,2,2.13Zm.7,33,1.14-4.42a13,13,0,0,1-1.76,2.42c-.53.54-1.28,1.2-2.24,2Z" transform="translate(-6 -5)"/><path class="cls-3" d="M221.59,186.21H208.51v-1.39a5.76,5.76,0,0,0,2.08-.4,1.84,1.84,0,0,0,1-1.18,8.52,8.52,0,0,0,.29-2.54V155.17a3.21,3.21,0,0,0-.79-2.54,4.78,4.78,0,0,0-2.56-.84V150.4h13.62a9.37,9.37,0,0,1,4.89,1.34,12,12,0,0,1,3.84,3.8,19.31,19.31,0,0,1,2.48,5.8,28.55,28.55,0,0,1,.87,7.21,26.15,26.15,0,0,1-.9,7,17.93,17.93,0,0,1-2.58,5.62,12.21,12.21,0,0,1-4,3.7A10.24,10.24,0,0,1,221.59,186.21Zm-8.1-5.35V157.4a17.18,17.18,0,0,0-.36-4.25,1.76,1.76,0,0,0-1.88-1.26,2.65,2.65,0,0,1,.93,1.39,10.41,10.41,0,0,1,.22,2.52v24.42a21.93,21.93,0,0,1-.11,2.46,4.19,4.19,0,0,1-.35,1.35,2.15,2.15,0,0,1-.69.79,1.82,1.82,0,0,0,1.75-.93A6.85,6.85,0,0,0,213.49,180.86ZM216,159.13v20.48a18.43,18.43,0,0,0,.2,3.21,2.24,2.24,0,0,0,.94,1.5,4.49,4.49,0,0,0,2.41.5,8.51,8.51,0,0,0,3.21-.57,7.57,7.57,0,0,0,2.71-2,13.41,13.41,0,0,0,2.37-3.61,17.49,17.49,0,0,0,1.24-4.42,35.64,35.64,0,0,0,.39-5.52q0-9.06-3.44-13.58a8.23,8.23,0,0,0-3-2.57,9.45,9.45,0,0,0-3.92-.76,2.86,2.86,0,0,0-2.18.7,3.35,3.35,0,0,0-.76,2C216.05,155.37,216,156.91,216,159.13Zm7.7,25.69a6.33,6.33,0,0,0,3.79-2.24,13.76,13.76,0,0,0,2.67-5.4,31.55,31.55,0,0,0,1-8.38,40.45,40.45,0,0,0-.47-6.4,23.13,23.13,0,0,0-1.38-5.06,10.52,10.52,0,0,0-2.21-3.47,5.71,5.71,0,0,0-1.58-1.19,10.34,10.34,0,0,0-1.8-.68Q230,155.83,230,169a33.07,33.07,0,0,1-.67,7,16.15,16.15,0,0,1-2.09,5.27A11.83,11.83,0,0,1,223.71,184.82Z" transform="translate(-6 -5)"/><path class="cls-3" d="M237,150.4h11v1.39a4.48,4.48,0,0,0-2.39.63,2.7,2.7,0,0,0-.92,2.29c0,.71,0,1.28-.07,1.69s0,.6,0,.55v23.4a10.87,10.87,0,0,0,.21,2.39,2.55,2.55,0,0,0,.58,1.26,2,2,0,0,0,.88.52,11.71,11.71,0,0,0,1.74.3v1.39H237v-1.39a4.7,4.7,0,0,0,2.22-.47,2.08,2.08,0,0,0,1-1.42,15.3,15.3,0,0,0,.23-3.11V157.15a24.46,24.46,0,0,0-.13-3,2.86,2.86,0,0,0-.47-1.41,1.74,1.74,0,0,0-.93-.59,15.35,15.35,0,0,0-1.89-.35Zm4,6v25.28a4.56,4.56,0,0,1-.3,1.91,3.78,3.78,0,0,1-1,1.22,3.09,3.09,0,0,0,1.73-.55c.44-.33.66-1.05.66-2.17V155.17a5.66,5.66,0,0,0-.46-2.59,1.76,1.76,0,0,0-1.83-.79c.84.68,1.25,2,1.25,3.86V156Z" transform="translate(-6 -5)"/><path class="cls-3" d="M251.16,150.4h21l1.19,8.37h-1.19a15.74,15.74,0,0,0-2.65-4.79,5.61,5.61,0,0,0-2.62-1.83,15.93,15.93,0,0,0-3.2-.36v28.86a7.27,7.27,0,0,0,.34,2.55,2,2,0,0,0,1.14,1.21,6.9,6.9,0,0,0,2.21.41v1.39H255.77v-1.39a7.26,7.26,0,0,0,2.21-.35,2.06,2.06,0,0,0,1.15-1.21,8,8,0,0,0,.39-2.91V151.79a8.76,8.76,0,0,0-3.1.55,6.45,6.45,0,0,0-2.21,1.41,9.32,9.32,0,0,0-1.48,1.89c-.39.67-1,1.71-1.72,3.13h-1Zm3.06,1.39h-2.67l-.64,4.32a16,16,0,0,1,1.47-2.53A10.89,10.89,0,0,1,254.22,151.79Zm6.9,28v-25a8,8,0,0,0-.23-2.2,1,1,0,0,0-.83-.82v28.86a10,10,0,0,1-.25,2.52,3.76,3.76,0,0,1-.92,1.65h.36a1.46,1.46,0,0,0,1.54-1.17A15.93,15.93,0,0,0,261.12,179.77Zm10.32-23.92-.75-4.06h-3.1a6.46,6.46,0,0,1,2.1,1.58A17.72,17.72,0,0,1,271.44,155.85Z" transform="translate(-6 -5)"/><path class="cls-3" d="M275.33,150.4h11v1.39a4.48,4.48,0,0,0-2.39.63,2.7,2.7,0,0,0-.92,2.29c0,.71,0,1.28-.06,1.69s0,.6,0,.55v23.4a10.87,10.87,0,0,0,.21,2.39,2.64,2.64,0,0,0,.58,1.26,2,2,0,0,0,.88.52,11.71,11.71,0,0,0,1.74.3v1.39h-11v-1.39a4.69,4.69,0,0,0,2.21-.47,2.13,2.13,0,0,0,1-1.42,16.26,16.26,0,0,0,.22-3.11V157.15a24.46,24.46,0,0,0-.13-3,2.76,2.76,0,0,0-.47-1.41,1.74,1.74,0,0,0-.93-.59,15.48,15.48,0,0,0-1.88-.35Zm3.95,6v25.28a4.76,4.76,0,0,1-.29,1.91,4,4,0,0,1-1,1.22,3.15,3.15,0,0,0,1.74-.55,2.69,2.69,0,0,0,.65-2.17V155.17a5.66,5.66,0,0,0-.46-2.59,1.76,1.76,0,0,0-1.83-.79c.84.68,1.26,2,1.26,3.86,0,.14,0,.26,0,.38Z" transform="translate(-6 -5)"/><path class="cls-3" d="M305.33,151.79V150.4h8.82v1.39a3.17,3.17,0,0,0-1.94.76,4.74,4.74,0,0,0-1.31,2.07,9.89,9.89,0,0,0-.48,3.27l.32,29.11h-1l-16.84-30.31.24,20.39a30,30,0,0,0,.2,3.21,8.36,8.36,0,0,0,.59,2.27,3.64,3.64,0,0,0,1.23,1.52,4.73,4.73,0,0,0,2.07.74v1.39h-8.75v-1.39A3.39,3.39,0,0,0,291,183.4a6.53,6.53,0,0,0,1-3,34.46,34.46,0,0,0,.14-4.55L291.93,155a11.12,11.12,0,0,0-1.83-2.4,2.73,2.73,0,0,0-1.85-.83h-.2V150.4h6.81l14.85,26.68-.23-17.85a19.25,19.25,0,0,0-.27-3.49,5.81,5.81,0,0,0-.91-2.32,3.57,3.57,0,0,0-1.33-1.18A3.26,3.26,0,0,0,305.33,151.79Zm3.18,29.07-14.85-26.68a8.32,8.32,0,0,0-1.1-1.65,2.24,2.24,0,0,0-1.79-.74H290a4.25,4.25,0,0,1,1.43,1.23c.34.49.82,1.29,1.44,2.43l16.93,30.36c0-.49,0-1,0-1.44a6.58,6.58,0,0,0-.11-1,5.76,5.76,0,0,0-.31-.85C309.21,182.14,308.93,181.6,308.51,180.86Zm-18,4H294a6.75,6.75,0,0,1-1-1.6,10.31,10.31,0,0,1-.52-2.06,7.2,7.2,0,0,1-.66,2.07A5.24,5.24,0,0,1,290.47,184.82Zm20.63-33h-3.61a3.68,3.68,0,0,1,1.34,1.2,6.8,6.8,0,0,1,.88,2.08A6,6,0,0,1,311.1,151.79Z" transform="translate(-6 -5)"/><path class="cls-3" d="M337.42,149.91l.28,11.2h-.89a27.91,27.91,0,0,0-1.71-4.27,16.1,16.1,0,0,0-2-3.08A7.39,7.39,0,0,0,331,152a5,5,0,0,0-2.33-.58,5.21,5.21,0,0,0-4,2.15,15.23,15.23,0,0,0-2.76,6,35.22,35.22,0,0,0-1,8.78,32.62,32.62,0,0,0,1.08,8.78,15.57,15.57,0,0,0,2.91,6,5.29,5.29,0,0,0,4,2.13,4.05,4.05,0,0,0,2.37-.76,4.81,4.81,0,0,0,1.65-2,6.44,6.44,0,0,0,.58-2,22.81,22.81,0,0,0,.13-2.71,26.22,26.22,0,0,0-.17-3.6,2,2,0,0,0-.83-1.44,6,6,0,0,0-2.28-.63v-1.44H341v1.44a6.27,6.27,0,0,0-2.27.6,2.11,2.11,0,0,0-.85,1.42,19.9,19.9,0,0,0-.21,3.49v5.66a18.13,18.13,0,0,1-2.94,1.92,16.4,16.4,0,0,1-3.18,1.28,11.38,11.38,0,0,1-3.18.46,9.87,9.87,0,0,1-5.21-1.42,11.83,11.83,0,0,1-3.9-4,19.85,19.85,0,0,1-2.39-5.91,29.88,29.88,0,0,1-.81-7,30.93,30.93,0,0,1,.8-7,22.55,22.55,0,0,1,2.3-6.08,12.87,12.87,0,0,1,3.61-4.19,7.65,7.65,0,0,1,4.63-1.54,12.73,12.73,0,0,1,3.92.74,12.81,12.81,0,0,0,2.77.73,2.13,2.13,0,0,0,2.13-1.27ZM326.05,186a22,22,0,0,1-2.77-2.2,15.05,15.05,0,0,1-2.33-3,22.2,22.2,0,0,1-2.42-5.88,25.89,25.89,0,0,1-.86-6.54,27.57,27.57,0,0,1,1.1-7.61,22.54,22.54,0,0,1,3-6.6,11.57,11.57,0,0,1,1.77-2.07,24.44,24.44,0,0,1,2-1.51,7.82,7.82,0,0,0-1.87.79,9.6,9.6,0,0,0-2.7,2.52,18.93,18.93,0,0,0-2.27,4,25.56,25.56,0,0,0-1.53,5,28,28,0,0,0-.53,5.46,28.72,28.72,0,0,0,.87,7,19.39,19.39,0,0,0,2.4,5.85,11.48,11.48,0,0,0,1.91,2.3,9.47,9.47,0,0,0,1.9,1.37A20.45,20.45,0,0,0,326.05,186Zm8.08-10.1v3.35a9.3,9.3,0,0,1-.53,3.06,5.55,5.55,0,0,1-1.72,2.5,4.57,4.57,0,0,0,2-1.23,4.81,4.81,0,0,0,1-2.07,14.84,14.84,0,0,0,.3-3.3c0-1.68,0-2.88-.12-3.62a3.24,3.24,0,0,0-.63-1.73,2.5,2.5,0,0,0-1.61-.8,5.26,5.26,0,0,1,.94,1.49A6.71,6.71,0,0,1,334.13,175.91Zm1.71-19.17-.23-4.62a2.45,2.45,0,0,1-1.22.46,3.37,3.37,0,0,1-.66-.06,4.49,4.49,0,0,1-.66-.21l-.51-.19A17.53,17.53,0,0,1,335.84,156.74Z" transform="translate(-6 -5)"/><path class="cls-3" d="M192.48,362v-5.53A42.44,42.44,0,0,0,211,346.71a53.36,53.36,0,0,0,12.7-18.5,135.17,135.17,0,0,0,8.17-27.87,28.88,28.88,0,0,1-9.48,6.26,31.44,31.44,0,0,1-11.23,1.83A26.68,26.68,0,0,1,194.86,303a36.6,36.6,0,0,1-11.62-15.34A56.72,56.72,0,0,1,179,265a60.77,60.77,0,0,1,4.84-24.91q4.83-10.9,13.28-16.78a31.69,31.69,0,0,1,18.45-5.86,28.59,28.59,0,0,1,15.58,4.48,39.4,39.4,0,0,1,12.26,12.83,69.27,69.27,0,0,1,8,19.49,102,102,0,0,1,2.81,24.86,104.2,104.2,0,0,1-5.15,33.5,87,87,0,0,1-14,26.44,64.11,64.11,0,0,1-20,17.12A46.55,46.55,0,0,1,192.48,362Zm12.69-57.22q-18.55-13.92-18.56-41,0-24,16.58-40.55a35.74,35.74,0,0,0-16.1,16.57,56.14,56.14,0,0,0-5.47,25.07A57.24,57.24,0,0,0,184.16,282a39.92,39.92,0,0,0,6.66,13.27Q195.89,301.33,205.17,304.78Zm-5.86-41.25q0,18.75,4.87,28.57t13.29,9.81q8,0,12.53-9.37t4.52-27.33a93.58,93.58,0,0,0-2.46-22.94q-2.46-9.61-6.7-14.45T215.88,223q-4.75,0-8.52,4.49t-5.91,13.67A99.94,99.94,0,0,0,199.31,263.53Zm12,86.53a45.84,45.84,0,0,0,13.41-10.8,60,60,0,0,0,9.75-16.43,101.57,101.57,0,0,0,6-22.3,171.94,171.94,0,0,0,2.06-27.72,141.55,141.55,0,0,0-.95-17.37,70.38,70.38,0,0,0-3-13.81,38.41,38.41,0,0,0-5.16-10.36,23.43,23.43,0,0,0-7.45-6.71,44.32,44.32,0,0,1,8.8,17.71q2.38,9.82,2.38,25.7,0,28.81-6.43,49.43T211.28,350.06Z" transform="translate(-6 -5)"/><path class="cls-3" d="M275.29,362v-5.53a42.55,42.55,0,0,0,18.48-9.76,53.21,53.21,0,0,0,12.69-18.5,134.55,134.55,0,0,0,8.17-27.87,28.78,28.78,0,0,1-9.48,6.26,31.42,31.42,0,0,1-11.22,1.83A26.68,26.68,0,0,1,277.67,303a36.52,36.52,0,0,1-11.62-15.34,56.72,56.72,0,0,1-4.24-22.6,60.77,60.77,0,0,1,4.84-24.91q4.83-10.9,13.28-16.78a31.66,31.66,0,0,1,18.44-5.86A28.63,28.63,0,0,1,314,221.94a39.28,39.28,0,0,1,12.25,12.83,68.69,68.69,0,0,1,8,19.49A101.44,101.44,0,0,1,337,279.12a103.93,103.93,0,0,1-5.16,33.5,86.76,86.76,0,0,1-14,26.44,64.22,64.22,0,0,1-20,17.12A46.58,46.58,0,0,1,275.29,362ZM288,304.78q-18.56-13.92-18.56-41,0-24,16.58-40.55a35.69,35.69,0,0,0-16.1,16.57,56.14,56.14,0,0,0-5.48,25.07A57.56,57.56,0,0,0,267,282a39.92,39.92,0,0,0,6.67,13.27Q278.7,301.33,288,304.78Zm-5.87-41.25q0,18.75,4.88,28.57t13.29,9.81q8,0,12.53-9.37t4.52-27.33a93.58,93.58,0,0,0-2.46-22.94q-2.46-9.61-6.7-14.45T298.69,223q-4.76,0-8.53,4.49t-5.91,13.67A100.54,100.54,0,0,0,282.11,263.53Zm12,86.53a45.8,45.8,0,0,0,13.4-10.8,60,60,0,0,0,9.76-16.43,102.69,102.69,0,0,0,6-22.3,173.09,173.09,0,0,0,2.06-27.72,143.56,143.56,0,0,0-.95-17.37,70.35,70.35,0,0,0-3-13.81,38.11,38.11,0,0,0-5.15-10.36,23.36,23.36,0,0,0-7.46-6.71,44.22,44.22,0,0,1,8.81,17.71q2.37,9.82,2.38,25.7,0,28.81-6.43,49.43T294.09,350.06Z" transform="translate(-6 -5)"/></g></svg>