<svg xmlns="http://www.w3.org/2000/svg" viewBox="0 0 510 510"><defs><style>.cls-1,.cls-2{fill:none;stroke-miterlimit:10;stroke-width:100px;}.cls-1{stroke:#4d4d4d;}.cls-2{stroke:#1934d1;}.cls-3{fill:#1934d1;}</style></defs><title>creativity-percent</title><g id="background"><circle class="cls-1" cx="255" cy="255" r="205"/></g><g id="front"><path class="cls-2" d="M261,55c113.22,0,205,91.78,205,205S374.22,465,261,465,56,373.22,56,260c0-50.11,18.55-95.56,47.84-131.64C115,114.57,123.7,107.75,139,95c12-10,37.89-24.32,47-27" transform="translate(-6 -5)"/><path class="cls-3" d="M181.61,366v-6.77a52.64,52.64,0,0,0,22.76-12q9.47-8.58,15.63-22.65t10.06-34.13a35.69,35.69,0,0,1-11.68,7.67,39,39,0,0,1-13.82,2.23,32.94,32.94,0,0,1-20-6.7q-9.09-6.7-14.31-18.79T165,247.23q0-17.14,6-30.5t16.36-20.54A39.16,39.16,0,0,1,210,189a35.4,35.4,0,0,1,19.2,5.49,48.26,48.26,0,0,1,15.09,15.71,84.13,84.13,0,0,1,9.81,23.87,123.33,123.33,0,0,1,3.47,30.44,126.54,126.54,0,0,1-6.35,41A106.08,106.08,0,0,1,234,337.91a78.72,78.72,0,0,1-24.61,21A57.63,57.63,0,0,1,181.61,366Zm15.63-70.08q-22.86-17-22.86-50.26,0-29.35,20.41-49.65A43.88,43.88,0,0,0,175,216.3,68.49,68.49,0,0,0,168.22,247a70.25,70.25,0,0,0,3.13,21.09,49,49,0,0,0,8.2,16.25Q185.81,291.7,197.24,295.92ZM190,245.42q0,23,6,35t16.36,12q9.85,0,15.43-11.48t5.57-33.46q0-16.32-3-28.1t-8.26-17.69q-5.22-5.92-11.67-5.92c-3.9,0-7.41,1.83-10.5,5.49s-5.52,9.25-7.28,16.74S190,234.63,190,245.42Zm14.75,106a56.5,56.5,0,0,0,16.51-13.23,73.58,73.58,0,0,0,12-20.12,124.18,124.18,0,0,0,7.42-27.3,209.37,209.37,0,0,0,2.54-34,174.17,174.17,0,0,0-1.17-21.27,85.77,85.77,0,0,0-3.71-16.91A46.75,46.75,0,0,0,232,205.91a28.83,28.83,0,0,0-9.18-8.21,54,54,0,0,1,10.84,21.68q2.94,12,2.93,31.48,0,35.28-7.91,60.53T204.76,351.38Z" transform="translate(-6 -5)"/><path class="cls-3" d="M343,225.61H299.22q-7.92,0-12,1.57a14.18,14.18,0,0,0-6.69,5.49,62.76,62.76,0,0,0-5.76,12.27h-5.67L285.35,189h5.47q1,6.52,4.69,8.22t13.67,1.69H359q-4.5,11.6-7.77,21.2t-6.84,21.63q-3.56,12-5.42,18.66t-5.37,19.21q-6.84,24.64-11.87,42.65t-8,26.7q-2.92,8.7-5.81,12.87T301.37,366a5.17,5.17,0,0,1-4.5-2.48,10.1,10.1,0,0,1-1.66-5.74,22.54,22.54,0,0,1,1.62-7.73q1.6-4.35,8.15-21.51,7.13-18.12,13.77-35.76T330.09,262q4.68-13.17,8-22.59T343,225.61ZM295.8,221.5H335a45.66,45.66,0,0,0,6.35-.3,5.67,5.67,0,0,0,3.32-1.93,21,21,0,0,0,3.13-5.5h-48c-.52-.08-1-.14-1.56-.19s-1.07-.05-1.66-.05c-4.36,0-7.74,1-10.11,2.9s-4.48,5.27-6.3,10A27.73,27.73,0,0,1,295.8,221.5Z" transform="translate(-6 -5)"/><path class="cls-3" d="M193.66,142.16h1.05v8.76h-.8a26.11,26.11,0,0,0-1.29-3.41,12.88,12.88,0,0,0-1.48-2.46,5.78,5.78,0,0,0-1.64-1.46,3.69,3.69,0,0,0-1.84-.48,3.6,3.6,0,0,0-2.41.92,7.3,7.3,0,0,0-1.86,2.63,17.38,17.38,0,0,0-1.19,4.16,30,30,0,0,0-.43,5.24,25.85,25.85,0,0,0,.84,6.91,11.79,11.79,0,0,0,2.36,4.72,4.53,4.53,0,0,0,3.45,1.69,4.75,4.75,0,0,0,2.29-.6,7.57,7.57,0,0,0,2.12-1.84,15.21,15.21,0,0,0,1.88-3.08l.75.66a13,13,0,0,1-3.46,4.85,7.2,7.2,0,0,1-4.66,1.63,6.84,6.84,0,0,1-3.77-1.11,9.92,9.92,0,0,1-3-3.09,16.25,16.25,0,0,1-1.92-4.62,22.21,22.21,0,0,1-.67-5.55,22.44,22.44,0,0,1,.73-5.88,16.16,16.16,0,0,1,2-4.68,9.84,9.84,0,0,1,3-3,6.65,6.65,0,0,1,3.6-1.06,5.1,5.1,0,0,1,1.33.17,11.17,11.17,0,0,1,1.48.52l1.16.47a2.08,2.08,0,0,0,.69.11A2,2,0,0,0,193.66,142.16Zm-8.94.87a10.78,10.78,0,0,0-4.53,4.92,16.16,16.16,0,0,0-1,2.53,20.05,20.05,0,0,0-.6,2.9,22.48,22.48,0,0,0-.21,3,21.87,21.87,0,0,0,1,6.57,12.75,12.75,0,0,0,2.82,5,8,8,0,0,0,4.48,2.44,9.59,9.59,0,0,1-3.1-2,12.19,12.19,0,0,1-2.38-3.22,16.76,16.76,0,0,1-1.47-4.08,21,21,0,0,1-.49-4.6,21.88,21.88,0,0,1,.42-4.15,17.73,17.73,0,0,1,1.17-3.86,16,16,0,0,1,1.77-3.08A25,25,0,0,1,184.72,143Zm8.44,4.11-.08-3.36a2.15,2.15,0,0,1-1.26.41,2.25,2.25,0,0,1-.6-.07,11.79,11.79,0,0,1,1.08,1.49C192.59,146.09,192.88,146.6,193.16,147.14Z" transform="translate(-6 -5)"/><path class="cls-3" d="M205.52,170.43h-8.86v-1.09a5.2,5.2,0,0,0,1.84-.31,1.46,1.46,0,0,0,.83-1,7.62,7.62,0,0,0,.22-2.17V147.44a10.54,10.54,0,0,0-.19-2.36,1.58,1.58,0,0,0-.79-1.08,4.73,4.73,0,0,0-1.91-.38v-1.09h10.09a5.57,5.57,0,0,1,3.33,1,6.26,6.26,0,0,1,2.14,2.71,9.22,9.22,0,0,1,.73,3.65,9.54,9.54,0,0,1-.34,2.5,7.94,7.94,0,0,1-1,2.2,6.61,6.61,0,0,1-1.51,1.69,5.42,5.42,0,0,1-2.06,1c.58.91,1.31,2.19,2.17,3.86l1.26,2.31c.07.12.16.26.26.44s.23.41.4.69c.4.76.75,1.39,1,1.88a15.68,15.68,0,0,0,.84,1.34,6.35,6.35,0,0,0,.81,1,3.16,3.16,0,0,0,.84.56v1.09h-2.4a2.48,2.48,0,0,1-1.55-.57,6.4,6.4,0,0,1-1.4-1.59c-.44-.68-1-1.59-1.52-2.71L207,162c-.83-1.66-1.45-2.81-1.85-3.44s-.76-1-1.05-1h-1.42V166a7.75,7.75,0,0,0,.2,2,1.57,1.57,0,0,0,.9,1,4.23,4.23,0,0,0,.9.26,3.47,3.47,0,0,0,.81.08ZM200,147.28v19.51a3.08,3.08,0,0,1-.88,2.55c1.11,0,1.67-.71,1.67-2V147.4a18.55,18.55,0,0,0-.11-2.31,1.89,1.89,0,0,0-.5-1.15,1.48,1.48,0,0,0-1.19-.32,2,2,0,0,1,.84,1.2A12.58,12.58,0,0,1,200,147.28Zm2.75.35v8.92h2.07a4.47,4.47,0,0,0,2.07-.52,3.89,3.89,0,0,0,1.54-1.32,8.23,8.23,0,0,0,1.05-4.64q0-3.7-1.62-5.44a2.78,2.78,0,0,0-1.2-.81,5.48,5.48,0,0,0-1.6-.2,2.34,2.34,0,0,0-1.49.41,1.94,1.94,0,0,0-.66,1.22A13,13,0,0,0,202.71,147.63Zm3.33,10h-1a9.7,9.7,0,0,1,1.07,1.6q.62,1.06,1.53,2.88l1.85,3.7A14.78,14.78,0,0,0,211,168.4a3.92,3.92,0,0,0,1.29,1.16,3.21,3.21,0,0,0,1.2.29,7.09,7.09,0,0,1-1.52-1.63,24,24,0,0,1-1.57-2.63c-.55-1.06-1.13-2.17-1.72-3.35s-1.21-2.28-1.84-3.32c-.08-.18-.19-.39-.31-.62A2.6,2.6,0,0,0,206,157.64Zm1.13-1.19a3.73,3.73,0,0,0,2.63-2,9.11,9.11,0,0,0,.92-4.44,9.59,9.59,0,0,0-.82-4.34,3.38,3.38,0,0,0-2.32-1.95,5.53,5.53,0,0,1,1.72,2.44,12.25,12.25,0,0,1,.56,4.08,9.36,9.36,0,0,1-.67,4A5.15,5.15,0,0,1,207.17,156.45Z" transform="translate(-6 -5)"/><path class="cls-3" d="M222.74,156.63v8.7a14.35,14.35,0,0,0,.13,2.24,2.3,2.3,0,0,0,.49,1.19,1.75,1.75,0,0,0,1,.48,12.68,12.68,0,0,0,1.84.1,4.89,4.89,0,0,0,2.52-.66,7.54,7.54,0,0,0,2.11-2,27.6,27.6,0,0,0,2.17-3.45h1l-1.6,7.16H216.72v-1.09a4.87,4.87,0,0,0,1.73-.31,1.57,1.57,0,0,0,.84-.89,4.82,4.82,0,0,0,.25-1.77V146.82a6.46,6.46,0,0,0-.23-2,1.37,1.37,0,0,0-.78-.86,6.72,6.72,0,0,0-1.81-.33v-1.09h15.1l1.55,6.31h-.92a12.23,12.23,0,0,0-1.81-2.62,9.14,9.14,0,0,0-2.39-1.89,5.84,5.84,0,0,0-2.79-.71,3.17,3.17,0,0,0-1.75.39,1.81,1.81,0,0,0-.78,1.07,7,7,0,0,0-.19,1.82v8.62h2.57q3.36,0,3.4-4.76h.89v10.47h-.79a7.41,7.41,0,0,0-.88-3.5,2.43,2.43,0,0,0-2.2-1.1ZM220,147V166.1a7.69,7.69,0,0,1-.21,2.11,2.94,2.94,0,0,1-.66,1.13,1.34,1.34,0,0,0,1.38-.86,8.48,8.48,0,0,0,.31-2.72V146.63a4.41,4.41,0,0,0-.37-2.23,1.59,1.59,0,0,0-1.32-.58,2.09,2.09,0,0,1,.67,1.06A7.65,7.65,0,0,1,220,147Zm8.59,10.93V154a3.41,3.41,0,0,1-1.81,1.94,3.17,3.17,0,0,1,1.11.71A3.24,3.24,0,0,1,228.55,157.91Zm2.07-14.29h-2.31a7.72,7.72,0,0,1,1.7,1.19,20,20,0,0,1,1.57,1.66Zm.55,25.72.88-3.44a10.36,10.36,0,0,1-1.36,1.89c-.41.41-1,.93-1.74,1.55Z" transform="translate(-6 -5)"/><path class="cls-3" d="M247.16,165.56l-1.43-5.65h-6l-.84,3.36a10.73,10.73,0,0,0-.33,2.67,4.86,4.86,0,0,0,.54,2.33,1.81,1.81,0,0,0,1.52,1.07v1.09h-5.92v-1.09q2-.45,3.19-5.28l4.43-17.51a3.19,3.19,0,0,0-.73-1.26,2.27,2.27,0,0,0-1.13-.44v-1l3.07-1.62h1.18l5.91,23.34a9,9,0,0,0,1,2.68,3.08,3.08,0,0,0,1.56,1.06v1.09h-7.6v-1.09a4.08,4.08,0,0,0,1.48-.47,1.36,1.36,0,0,0,.49-1.23A7.8,7.8,0,0,0,247.16,165.56ZM236,169.34h2.45a3.67,3.67,0,0,1-.8-2.43,5.75,5.75,0,0,1,0-.65,14,14,0,0,1-.7,1.68A6.81,6.81,0,0,1,236,169.34Zm4-10.7h5.42L242.69,148Zm8.33,6.19-4.56-17.89a7,7,0,0,0-.69-1.91,1.11,1.11,0,0,0-1-.56,1.93,1.93,0,0,0-.6.08,2.35,2.35,0,0,1,.92,1,10.44,10.44,0,0,1,.6,1.8l4.52,17.89a10.25,10.25,0,0,1,.42,2.47,1.74,1.74,0,0,1-.14.83,5,5,0,0,1-.56.75h.28a1.07,1.07,0,0,0,.93-.49,2.06,2.06,0,0,0,.33-1.17A13,13,0,0,0,248.32,164.83Z" transform="translate(-6 -5)"/><path class="cls-3" d="M254.89,142.53h16.25l.92,6.53h-.92a12.23,12.23,0,0,0-2.06-3.74,4.35,4.35,0,0,0-2-1.42,12.08,12.08,0,0,0-2.49-.28V166.1a5.59,5.59,0,0,0,.27,2,1.58,1.58,0,0,0,.88.94,5.36,5.36,0,0,0,1.71.32v1.09h-9v-1.09a5.75,5.75,0,0,0,1.71-.27,1.56,1.56,0,0,0,.89-.95,6.23,6.23,0,0,0,.31-2.26V143.62a6.69,6.69,0,0,0-2.41.43,5,5,0,0,0-1.71,1.09,7.15,7.15,0,0,0-1.14,1.48c-.31.52-.75,1.33-1.34,2.44H254Zm2.38,1.09H255.2l-.5,3.36a13.15,13.15,0,0,1,1.14-2A8,8,0,0,1,257.27,143.62Zm5.34,21.79V146a6.27,6.27,0,0,0-.17-1.72.77.77,0,0,0-.64-.63V166.1a8.35,8.35,0,0,1-.19,2,3,3,0,0,1-.72,1.29h.28a1.13,1.13,0,0,0,1.19-.91A12.56,12.56,0,0,0,262.61,165.41Zm8-18.63-.58-3.16h-2.4a5,5,0,0,1,1.62,1.23A13,13,0,0,1,270.62,146.78Z" transform="translate(-6 -5)"/><path class="cls-3" d="M273.63,142.53h8.52v1.09a3.47,3.47,0,0,0-1.86.49,2.1,2.1,0,0,0-.71,1.78c0,.56,0,1-.05,1.32s0,.46,0,.42v18.23a8.37,8.37,0,0,0,.16,1.86,2.18,2.18,0,0,0,.45,1,1.57,1.57,0,0,0,.68.4,11,11,0,0,0,1.36.23v1.09h-8.52v-1.09a3.52,3.52,0,0,0,1.72-.37,1.65,1.65,0,0,0,.76-1.1,12.6,12.6,0,0,0,.17-2.42V147.79a19.1,19.1,0,0,0-.1-2.34,2.21,2.21,0,0,0-.36-1.1,1.37,1.37,0,0,0-.72-.46,10.78,10.78,0,0,0-1.47-.27Zm3.07,4.69v19.69a3.65,3.65,0,0,1-.23,1.48,3,3,0,0,1-.79,1,2.37,2.37,0,0,0,1.34-.43c.34-.25.51-.82.51-1.69v-21a4.42,4.42,0,0,0-.36-2,1.37,1.37,0,0,0-1.42-.61,3.74,3.74,0,0,1,1,3c0,.1,0,.2,0,.29S276.71,147.11,276.7,147.22Z" transform="translate(-6 -5)"/><path class="cls-3" d="M296.24,142.53h5.9v1.09c-.67,0-1.29.64-1.87,1.75a24.49,24.49,0,0,0-1.73,5L293.25,171h-.7l-6.52-24a10.24,10.24,0,0,0-.94-2.72,2,2,0,0,0-1.51-.6v-1.09h7.69v1.09h-.22a1.71,1.71,0,0,0-1.31.48,1.77,1.77,0,0,0-.46,1.3s0,.18.08.67a8.2,8.2,0,0,0,.19,1.11l4.65,17.22,3.35-13a18.46,18.46,0,0,0,.71-4.41,4.76,4.76,0,0,0-.53-2.48,1.65,1.65,0,0,0-1.49-.88Zm-9.81,4.14,6.27,23.22a5.35,5.35,0,0,0,.37-1.52,6.94,6.94,0,0,0-.37-1.7l-5.35-19.85c-.23-.85-.43-1.51-.6-1.95a2.3,2.3,0,0,0-.66-1,2.09,2.09,0,0,0-1.11-.41,1.91,1.91,0,0,1,.76.95A21.73,21.73,0,0,1,286.43,146.67Zm13.64-3h-2.52a4.28,4.28,0,0,1,1.1,3.12A7.84,7.84,0,0,1,300.07,143.62Z" transform="translate(-6 -5)"/><path class="cls-3" d="M303.63,142.53h8.51v1.09a3.52,3.52,0,0,0-1.86.49,2.13,2.13,0,0,0-.71,1.78c0,.56,0,1-.05,1.32s0,.46,0,.42v18.23a8.37,8.37,0,0,0,.16,1.86,2,2,0,0,0,.45,1,1.57,1.57,0,0,0,.68.4,10.74,10.74,0,0,0,1.35.23v1.09h-8.51v-1.09a3.52,3.52,0,0,0,1.72-.37,1.61,1.61,0,0,0,.75-1.1,11.66,11.66,0,0,0,.18-2.42V147.79a19.1,19.1,0,0,0-.1-2.34,2.21,2.21,0,0,0-.36-1.1,1.36,1.36,0,0,0-.73-.46,10.57,10.57,0,0,0-1.46-.27Zm3.07,4.69v19.69a3.65,3.65,0,0,1-.23,1.48,3,3,0,0,1-.79,1,2.37,2.37,0,0,0,1.34-.43c.34-.25.51-.82.51-1.69v-21a4.42,4.42,0,0,0-.36-2,1.37,1.37,0,0,0-1.42-.61,3.74,3.74,0,0,1,1,3v.29C306.71,147,306.71,147.11,306.7,147.22Z" transform="translate(-6 -5)"/><path class="cls-3" d="M314.6,142.53h16.24l.92,6.53h-.92a12.24,12.24,0,0,0-2-3.74,4.42,4.42,0,0,0-2-1.42,12,12,0,0,0-2.49-.28V166.1a5.59,5.59,0,0,0,.27,2,1.58,1.58,0,0,0,.88.94,5.37,5.37,0,0,0,1.72.32v1.09h-9v-1.09a5.61,5.61,0,0,0,1.7-.27,1.57,1.57,0,0,0,.9-.95,6.27,6.27,0,0,0,.3-2.26V143.62a6.78,6.78,0,0,0-2.41.43,5,5,0,0,0-1.71,1.09,7.15,7.15,0,0,0-1.14,1.48c-.3.52-.75,1.33-1.34,2.44h-.78Zm2.38,1.09H314.9l-.49,3.36a12.43,12.43,0,0,1,1.13-2A8.05,8.05,0,0,1,317,143.62Zm5.34,21.79V146a6.2,6.2,0,0,0-.18-1.72.77.77,0,0,0-.64-.63V166.1a7.84,7.84,0,0,1-.19,2,3,3,0,0,1-.72,1.29h.28a1.12,1.12,0,0,0,1.19-.91A12.43,12.43,0,0,0,322.32,165.41Zm8-18.63-.58-3.16h-2.4a5,5,0,0,1,1.62,1.23A13,13,0,0,1,330.32,146.78Z" transform="translate(-6 -5)"/><path class="cls-3" d="M345.3,143.62v-1.09H351v1.09a2.22,2.22,0,0,0-1.14.76,8.42,8.42,0,0,0-1.2,1.87,30.19,30.19,0,0,0-1.26,3l-3.77,10v7.11c0,1.27.2,2.06.6,2.38a4.35,4.35,0,0,0,2.12.63v1.09h-8.62v-1.09H338a2.63,2.63,0,0,0,1.66-.44,1.93,1.93,0,0,0,.68-1.14,10.92,10.92,0,0,0,.13-1.82v-5.75L335,146.05a9,9,0,0,0-.89-1.88,1.55,1.55,0,0,0-1.46-.55v-1.09h8.43v1.09a5.47,5.47,0,0,0-1.78.3q-.63.26-.63,1.32a10.86,10.86,0,0,0,.91,3.16l3.69,9.51,2.47-6.42a27,27,0,0,0,1-3,9.15,9.15,0,0,0,.33-2.34,3.38,3.38,0,0,0-.45-1.75,1.37,1.37,0,0,0-1.17-.76Zm-3.64,16-5.32-13.83a8,8,0,0,0-.83-1.78,1.06,1.06,0,0,0-.9-.42h-.38a1.72,1.72,0,0,1,.56.69c.16.32.36.82.62,1.51L340.85,160v6.84a3.65,3.65,0,0,1-.25,1.6,2.8,2.8,0,0,1-.92,1h.54a1.14,1.14,0,0,0,1.12-.61,4.23,4.23,0,0,0,.32-1.86ZM347.47,146v.46a8.53,8.53,0,0,1,.63-1.6c.21-.36.49-.77.84-1.25h-2.23A3.24,3.24,0,0,1,347.47,146Z" transform="translate(-6 -5)"/></g></svg>