<svg id="Layer_1" data-name="Layer 1" xmlns="http://www.w3.org/2000/svg" viewBox="0 0 510 510.03"><defs><style>.cls-1,.cls-2{fill:none;stroke-miterlimit:10;stroke-width:100px;}.cls-1{stroke:#6d6e71;}.cls-2{stroke:#f7941d;}.cls-3{fill:#f7941d;}</style></defs><title>Design_Percent</title><circle class="cls-1" cx="255" cy="255" r="205"/><path class="cls-2" d="M260,55c113.22,0,205,91.78,205,205S373.2,467.09,260,465C76.43,461.61-4.36,256.83,104.5,126.52" transform="translate(-5 -5)"/><path class="cls-3" d="M170.3,216.41a59.53,59.53,0,0,1,5.61-25.57,47.89,47.89,0,0,1,15.48-19.06,37.2,37.2,0,0,1,22.19-7.07,37.6,37.6,0,0,1,21.59,6.51,43,43,0,0,1,14.77,17.3,51.88,51.88,0,0,1,5.18,22.7A45.29,45.29,0,0,1,252,228.66a44.07,44.07,0,0,1-9.1,13.73A80.15,80.15,0,0,1,228.73,254q15.81,13.17,24.92,26.83t9.1,34a58.73,58.73,0,0,1-6.6,27.53,51.63,51.63,0,0,1-18,20,46,46,0,0,1-25.4,7.35,43,43,0,0,1-23.83-6.79,45.51,45.51,0,0,1-16.24-18.29,53.88,53.88,0,0,1-5.72-24.38q0-29.84,31.94-51.28-14.38-13.15-21.48-25.28A53,53,0,0,1,170.3,216.41Zm14.5-32.79Q173.9,197.21,173.89,217q0,16.38,9.05,28.51t27.2,28q18.17,15.82,27,27.39T246,328.07q0,16-11.77,30.4,17.12-12,17.11-34.46a51.06,51.06,0,0,0-6.48-24.59,80.71,80.71,0,0,0-18.7-22.49Q212.71,265,204,257a134.94,134.94,0,0,1-14.34-15.28,55.39,55.39,0,0,1-8.5-14.78,47.58,47.58,0,0,1-2.84-16.81Q178.36,198.61,184.8,183.62Zm19.4,90.51a57.48,57.48,0,0,0-15.59,18.28q-5.56,10.44-5.56,27.81,0,19.33,8.67,30.48T214,361.83a25.55,25.55,0,0,0,14.06-4.2A29.93,29.93,0,0,0,238.49,346a35.82,35.82,0,0,0,3.87-16.81A43.75,43.75,0,0,0,239.15,312a53,53,0,0,0-8.4-13.66,102.41,102.41,0,0,0-12.16-12Zm19-25.64a63.85,63.85,0,0,0,9.65-9.88,37.3,37.3,0,0,0,5.67-11.7,57.1,57.1,0,0,0,2.13-16.53q0-11.91-3.6-20.45t-10-13a23.86,23.86,0,0,0-13.9-4.42,24.34,24.34,0,0,0-17.6,7.15q-7.36,7.14-7.36,19.19a38.38,38.38,0,0,0,2.29,13.38A42.85,42.85,0,0,0,197,224a81.85,81.85,0,0,0,9.75,10.44Q212.27,239.38,223.17,248.49Z" transform="translate(-5 -5)"/><path class="cls-3" d="M284.12,216.41a59.53,59.53,0,0,1,5.61-25.57,48,48,0,0,1,15.49-19.06,37.17,37.17,0,0,1,22.18-7.07A37.57,37.57,0,0,1,349,171.22a42.89,42.89,0,0,1,14.77,17.3,51.74,51.74,0,0,1,5.18,22.7,45.29,45.29,0,0,1-3.1,17.44,44.1,44.1,0,0,1-9.11,13.73A80.43,80.43,0,0,1,342.56,254q15.81,13.17,24.91,26.83t9.1,34A58.72,58.72,0,0,1,370,342.29a51.65,51.65,0,0,1-18.05,20,46,46,0,0,1-25.4,7.35,42.92,42.92,0,0,1-23.82-6.79,45.46,45.46,0,0,1-16.25-18.29,54,54,0,0,1-5.72-24.38q0-29.84,31.94-51.28-14.39-13.15-21.47-25.28A52.94,52.94,0,0,1,284.12,216.41Zm14.5-32.79q-10.9,13.59-10.9,33.35,0,16.38,9,28.51t27.2,28q18.15,15.82,27,27.39t8.83,27.25q0,16-11.77,30.4,17.12-12,17.12-34.46a51.08,51.08,0,0,0-6.49-24.59,80.71,80.71,0,0,0-18.7-22.49Q326.53,265,317.86,257a133.87,133.87,0,0,1-14.33-15.28A55.43,55.43,0,0,1,295,226.91a47.58,47.58,0,0,1-2.83-16.81Q292.19,198.61,298.62,183.62ZM318,274.13a57.35,57.35,0,0,0-15.59,18.28q-5.56,10.44-5.56,27.81,0,19.33,8.66,30.48t22.3,11.13a25.55,25.55,0,0,0,14.06-4.2A30,30,0,0,0,352.32,346a35.82,35.82,0,0,0,3.87-16.81A43.75,43.75,0,0,0,353,312a52.72,52.72,0,0,0-8.39-13.66,103.17,103.17,0,0,0-12.16-12Q325.44,280.42,318,274.13Zm19-25.64a64.31,64.31,0,0,0,9.65-9.88,37.3,37.3,0,0,0,5.67-11.7,57.47,57.47,0,0,0,2.12-16.53q0-11.91-3.6-20.45a28.76,28.76,0,0,0-10-13,23.88,23.88,0,0,0-13.9-4.42,24.37,24.37,0,0,0-17.61,7.15Q302,186.84,302,198.89a38.38,38.38,0,0,0,2.29,13.38,43.39,43.39,0,0,0,6.54,11.7,82.67,82.67,0,0,0,9.76,10.44Q326.1,239.38,337,248.49Z" transform="translate(-5 -5)"/><path class="cls-3" d="M209.54,150.83H196.31v-1a8.57,8.57,0,0,0,2.1-.27,1.61,1.61,0,0,0,1-.83,4.37,4.37,0,0,0,.29-1.79V129a1.88,1.88,0,0,0-.8-1.78,6.45,6.45,0,0,0-2.59-.59v-1h13.78a12.73,12.73,0,0,1,4.95,1,11.19,11.19,0,0,1,3.88,2.66,11.92,11.92,0,0,1,2.51,4.07,14.28,14.28,0,0,1,.89,5.06,13.3,13.3,0,0,1-.91,4.93,11.5,11.5,0,0,1-2.61,3.94,11.83,11.83,0,0,1-4.08,2.6A14.11,14.11,0,0,1,209.54,150.83Zm-8.19-3.76V130.61a8.28,8.28,0,0,0-.37-3c-.24-.58-.88-.87-1.9-.89a2,2,0,0,1,.94,1,5.23,5.23,0,0,1,.23,1.78v17.14a9.55,9.55,0,0,1-.12,1.72,2.36,2.36,0,0,1-.35,1,1.83,1.83,0,0,1-.7.55,2.11,2.11,0,0,0,1.77-.65A3.55,3.55,0,0,0,201.35,147.07Zm2.55-15.25V146.2a9.22,9.22,0,0,0,.2,2.25,1.64,1.64,0,0,0,1,1.05,6.24,6.24,0,0,0,2.44.35,12,12,0,0,0,3.25-.4,8,8,0,0,0,2.74-1.4,10,10,0,0,0,2.4-2.54,9.62,9.62,0,0,0,1.26-3.1,17.73,17.73,0,0,0,.39-3.87q0-6.36-3.49-9.53a8,8,0,0,0-3.07-1.8,13,13,0,0,0-4-.54,3.81,3.81,0,0,0-2.21.49,2.06,2.06,0,0,0-.76,1.41A26.4,26.4,0,0,0,203.9,131.82Zm7.79,18a7.4,7.4,0,0,0,3.84-1.57,8.94,8.94,0,0,0,2.69-3.79,15.73,15.73,0,0,0,1-5.88,19.53,19.53,0,0,0-.47-4.49,12.53,12.53,0,0,0-1.39-3.56,8,8,0,0,0-2.24-2.43,6.26,6.26,0,0,0-1.6-.83,15.94,15.94,0,0,0-1.82-.49q6.39,2.7,6.39,11.91a16,16,0,0,1-.68,4.9,9.66,9.66,0,0,1-2.11,3.69A10.76,10.76,0,0,1,211.69,149.85Z" transform="translate(-5 -5)"/><path class="cls-3" d="M232.39,138.4v7.83a8.91,8.91,0,0,0,.18,2,1.81,1.81,0,0,0,.64,1.07,2.72,2.72,0,0,0,1.34.43c.59.06,1.38.09,2.4.09a8.57,8.57,0,0,0,3.29-.6,9.23,9.23,0,0,0,2.75-1.76,25.29,25.29,0,0,0,2.83-3.11h1.33l-2.08,6.45H224.54v-1a9.17,9.17,0,0,0,2.26-.27,1.88,1.88,0,0,0,1.1-.81,3.26,3.26,0,0,0,.32-1.59V129.56a4.13,4.13,0,0,0-.3-1.82,1.55,1.55,0,0,0-1-.77,11.47,11.47,0,0,0-2.36-.3v-1h19.71l2,5.69h-1.2a11.73,11.73,0,0,0-2.36-2.36,12.08,12.08,0,0,0-3.12-1.71,10.56,10.56,0,0,0-3.64-.64,5.8,5.8,0,0,0-2.29.35,1.87,1.87,0,0,0-1,1,4.63,4.63,0,0,0-.25,1.64v7.77h3.35q4.39,0,4.44-4.3h1.17v9.45h-1a5.25,5.25,0,0,0-1.15-3.17,3.78,3.78,0,0,0-2.87-1Zm-3.62-8.7v17.23a4.79,4.79,0,0,1-.28,1.91,2.58,2.58,0,0,1-.85,1,1.89,1.89,0,0,0,1.79-.77,5.52,5.52,0,0,0,.41-2.45V129.38a2.94,2.94,0,0,0-.48-2,2.48,2.48,0,0,0-1.72-.53,2,2,0,0,1,.87,1A5,5,0,0,1,228.77,129.7ZM240,139.55v-3.49a3.86,3.86,0,0,1-2.37,1.75,4.94,4.94,0,0,1,1.45.64A3,3,0,0,1,240,139.55Zm2.7-12.88h-3a10.91,10.91,0,0,1,2.22,1.07c.65.42,1.33.92,2.06,1.5Zm.72,23.18,1.15-3.1a10.06,10.06,0,0,1-1.78,1.7c-.54.38-1.29.84-2.27,1.4Z" transform="translate(-5 -5)"/><path class="cls-3" d="M249.79,141.78h1.1a18.93,18.93,0,0,0,2.21,4.73,9.3,9.3,0,0,0,2.82,2.84,6,6,0,0,0,3.19.93,5,5,0,0,0,3.57-1.39,5.24,5.24,0,0,0,.5-6.73,5.25,5.25,0,0,0-2.35-1.58,26.18,26.18,0,0,0-3.6-.85,20.46,20.46,0,0,1-3.17-.73,7.47,7.47,0,0,1-2.47-1.47,6,6,0,0,1-1.54-2.24,7.51,7.51,0,0,1-.53-2.81,8.18,8.18,0,0,1,.47-2.74,7.47,7.47,0,0,1,1.32-2.34,6.13,6.13,0,0,1,4.8-2.19,13.38,13.38,0,0,1,2.66.33,12.7,12.7,0,0,0,2.3.33,3.52,3.52,0,0,0,1.7-.43H264l.71,7.33h-1.17a18.06,18.06,0,0,0-3.42-5,5.88,5.88,0,0,0-4.21-1.72,4.37,4.37,0,0,0-2.24.6,4.5,4.5,0,0,0-1.66,1.64,4.44,4.44,0,0,0-.63,2.32,3.34,3.34,0,0,0,1.14,2.73,7.79,7.79,0,0,0,3.36,1.42c1.49.32,2.81.6,4,.82a11,11,0,0,1,2.79.87,7.35,7.35,0,0,1,2.95,2.76,7.68,7.68,0,0,1,1.05,4,8.57,8.57,0,0,1-1,4,7.67,7.67,0,0,1-2.72,3,7.16,7.16,0,0,1-3.91,1.12,6.42,6.42,0,0,1-1.83-.2c-.41-.13-1.12-.39-2.12-.77a7.15,7.15,0,0,0-2.3-.57,2.49,2.49,0,0,0-2.12,1.09h-1Zm.55-11.38a11,11,0,0,0-.28,2.19,6.22,6.22,0,0,0,.3,1.89,6.54,6.54,0,0,0,.88,1.8,5.45,5.45,0,0,0,1.32,1.38,6,6,0,0,0,2.17,1c.79.2,1.94.43,3.46.7a15.58,15.58,0,0,1,3.14.77,5.31,5.31,0,0,1,2.5,1.91,5.16,5.16,0,0,1,.89,3,6.37,6.37,0,0,1-.68,2.71,5.14,5.14,0,0,0,1.36-3.55,4.93,4.93,0,0,0-1-3.3,6,6,0,0,0-2.5-1.79,23.93,23.93,0,0,0-4.08-1.06l-2.65-.51a6.49,6.49,0,0,1-3.59-2.28,6,6,0,0,1-1.23-3.74c0-.26,0-.48,0-.66S250.33,130.54,250.34,130.4Zm0,14.69v4.76a2.64,2.64,0,0,1,.89-.87,2.75,2.75,0,0,1,1.26-.16c-.36-.47-.63-.81-.79-1a9.23,9.23,0,0,1-.6-1A13,13,0,0,1,250.34,145.09Zm12.58-14.84-.55-3.4a3.33,3.33,0,0,1-1.1.2,4.84,4.84,0,0,1-1.3-.2,6.42,6.42,0,0,1,1.16,1,12.35,12.35,0,0,1,1.05,1.38A9.93,9.93,0,0,0,262.92,130.25Z" transform="translate(-5 -5)"/><path class="cls-3" d="M269.64,125.69h11.11v1a6.31,6.31,0,0,0-2.43.44,1.7,1.7,0,0,0-.92,1.61c0,.5,0,.89-.07,1.19s0,.41,0,.38v16.43a5.39,5.39,0,0,0,.21,1.67,1.61,1.61,0,0,0,.59.89,2.32,2.32,0,0,0,.88.37c.33.06.92.13,1.77.2v1H269.64v-1a6.25,6.25,0,0,0,2.24-.33,1.61,1.61,0,0,0,1-1,7.61,7.61,0,0,0,.22-2.18V130.43a13.44,13.44,0,0,0-.12-2.11,1.65,1.65,0,0,0-.48-1,2,2,0,0,0-.94-.42c-.39-.07-1-.15-1.91-.24Zm4,4.22v17.75a2.37,2.37,0,0,1-.3,1.34,3.21,3.21,0,0,1-1,.85,4.05,4.05,0,0,0,1.75-.38,1.57,1.57,0,0,0,.67-1.53V129a3,3,0,0,0-.47-1.82,2.17,2.17,0,0,0-1.85-.55,2.85,2.85,0,0,1,1.27,2.71c0,.1,0,.18,0,.27Z" transform="translate(-5 -5)"/><path class="cls-3" d="M305.09,125.35l.28,7.86h-.9a16.53,16.53,0,0,0-1.74-3,11.78,11.78,0,0,0-2-2.17,7.35,7.35,0,0,0-2.17-1.25,6.68,6.68,0,0,0-2.35-.41,6.19,6.19,0,0,0-4.1,1.51,9.83,9.83,0,0,0-2.8,4.21,17.73,17.73,0,0,0-1,6.16,16.47,16.47,0,0,0,1.09,6.16,10.14,10.14,0,0,0,3,4.21,6.31,6.31,0,0,0,4,1.5,5.41,5.41,0,0,0,2.4-.54,4,4,0,0,0,1.67-1.39,3.61,3.61,0,0,0,.59-1.42,12.52,12.52,0,0,0,.13-1.91,11.93,11.93,0,0,0-.18-2.52,1.4,1.4,0,0,0-.84-1,8.09,8.09,0,0,0-2.3-.43v-1h10.83v1a8,8,0,0,0-2.3.42,1.48,1.48,0,0,0-.86,1,9.88,9.88,0,0,0-.21,2.45v4a22.05,22.05,0,0,1-6.2,2.24,16.88,16.88,0,0,1-3.21.32,13.28,13.28,0,0,1-5.27-1,10.86,10.86,0,0,1-4-2.79,12.29,12.29,0,0,1-2.41-4.15,14.84,14.84,0,0,1-.82-4.94,15.3,15.3,0,0,1,.81-4.93,13.46,13.46,0,0,1,2.32-4.27,11.22,11.22,0,0,1,3.66-2.94,10.2,10.2,0,0,1,4.68-1.08,17.68,17.68,0,0,1,4,.52,18.15,18.15,0,0,0,2.81.51,2.39,2.39,0,0,0,2.15-.89Zm-11.51,25.34a24.17,24.17,0,0,1-2.81-1.54,12.61,12.61,0,0,1-2.35-2.11,13.65,13.65,0,0,1-2.45-4.13,13,13,0,0,1-.87-4.59,13.89,13.89,0,0,1,1.11-5.34,14.2,14.2,0,0,1,3-4.63,9.83,9.83,0,0,1,1.79-1.46c.56-.33,1.23-.69,2-1.06a10.73,10.73,0,0,0-1.91.56,9.34,9.34,0,0,0-2.72,1.77,13.09,13.09,0,0,0-2.3,2.83,14.8,14.8,0,0,0-1.55,3.53,14.07,14.07,0,0,0-.53,3.84,14.6,14.6,0,0,0,.87,4.93,12,12,0,0,0,2.43,4.1,10,10,0,0,0,1.94,1.61,10.82,10.82,0,0,0,1.92,1Q292.13,150.32,293.58,150.69Zm8.17-7.09V146a4.84,4.84,0,0,1-.53,2.15,4.3,4.3,0,0,1-1.74,1.75,5.24,5.24,0,0,0,2-.86,3.08,3.08,0,0,0,1-1.46,7.32,7.32,0,0,0,.31-2.31,16.82,16.82,0,0,0-.13-2.54,1.9,1.9,0,0,0-.63-1.21,3,3,0,0,0-1.63-.56,3.5,3.5,0,0,1,.94,1A3.29,3.29,0,0,1,301.75,143.6Zm1.73-13.45-.23-3.25a3.19,3.19,0,0,1-1.23.32,4.55,4.55,0,0,1-.67,0c-.2,0-.42-.08-.67-.14l-.51-.14A13.46,13.46,0,0,1,303.48,130.15Z" transform="translate(-5 -5)"/><path class="cls-3" d="M327.05,126.67v-1H336v1a4,4,0,0,0-2,.54,3.41,3.41,0,0,0-1.33,1.45,5,5,0,0,0-.48,2.29l.32,20.43h-1l-17.05-21.27.25,14.31a16.17,16.17,0,0,0,.2,2.25,4.84,4.84,0,0,0,.6,1.6,3,3,0,0,0,1.25,1.06,5.91,5.91,0,0,0,2.09.52v1H310v-1a3.93,3.93,0,0,0,2.58-1,3.77,3.77,0,0,0,1-2.13,16.93,16.93,0,0,0,.14-3.19l-.24-14.6a9,9,0,0,0-1.85-1.68,3.45,3.45,0,0,0-1.87-.58h-.2v-1h6.89l15,18.73-.23-12.53a9.12,9.12,0,0,0-.28-2.45,3.45,3.45,0,0,0-2.27-2.46A4.42,4.42,0,0,0,327.05,126.67Zm3.22,20.4-15-18.72a6,6,0,0,0-1.1-1.16,2.81,2.81,0,0,0-1.81-.52h-.76a4.21,4.21,0,0,1,1.46.87,20.69,20.69,0,0,1,1.45,1.7l17.13,21.31c0-.35,0-.68,0-1a3.22,3.22,0,0,0-.11-.73,3,3,0,0,0-.32-.6A12.47,12.47,0,0,0,330.27,147.07ZM312,149.85h3.52a4.78,4.78,0,0,1-1.05-1.12,5.36,5.36,0,0,1-.52-1.44,4.4,4.4,0,0,1-.67,1.45A4.29,4.29,0,0,1,312,149.85Zm20.86-23.18h-3.65a3.5,3.5,0,0,1,1.36.84,4.27,4.27,0,0,1,.89,1.46A3.76,3.76,0,0,1,332.89,126.67Z" transform="translate(-5 -5)"/></svg>