<svg xmlns="http://www.w3.org/2000/svg" viewBox="0 0 510 510"><defs><style>.cls-1{fill:none;stroke:#662d91;stroke-miterlimit:10;stroke-width:100px;}.cls-2{fill:#662d91;}</style></defs><title>hardwork-percent</title><g id="background"><circle class="cls-1" cx="255" cy="255" r="205"/></g><g id="front"><path class="cls-2" d="M181.47,183.07v-1.42a4.74,4.74,0,0,0,2-.52,2,2,0,0,0,.78-1.37,18.71,18.71,0,0,0,.2-3.26V165.21H174.24v10.72c0,1.28,0,2.24.08,2.89a4.37,4.37,0,0,0,.36,1.55,1.72,1.72,0,0,0,.84.84,6.89,6.89,0,0,0,1.7.44v1.42H167.6v-1.42a5.73,5.73,0,0,0,1.59-.25,1.57,1.57,0,0,0,.88-.73,3.91,3.91,0,0,0,.45-1.53,24.07,24.07,0,0,0,.12-2.74V152.11c0-1.65-.21-2.74-.64-3.24a3.4,3.4,0,0,0-2.4-.9v-1.42h9.62V148a3.25,3.25,0,0,0-2,.55,2.52,2.52,0,0,0-.78,1.65,30.77,30.77,0,0,0-.16,3.65v9.48h10.25V152.42a11.4,11.4,0,0,0-.25-2.78,1.79,1.79,0,0,0-.83-1.18,6.51,6.51,0,0,0-1.94-.49v-1.42h9.63V148a4.19,4.19,0,0,0-2,.49,2.23,2.23,0,0,0-.78,1.56,25.67,25.67,0,0,0-.19,3.8V176.4a21.32,21.32,0,0,0,.18,3.21,2.52,2.52,0,0,0,.8,1.59,3.08,3.08,0,0,0,2,.45v1.42Zm-10.35-30.75V177a12,12,0,0,1-.29,3.17,4,4,0,0,1-.72,1.44h.42c.55,0,.94-.39,1.17-1.18a13.62,13.62,0,0,0,.34-3.56V153.69c0-1.65,0-2.86-.1-3.61a3.33,3.33,0,0,0-.51-1.67,1.34,1.34,0,0,0-1.32-.44,3,3,0,0,1,.78,1.41A13.42,13.42,0,0,1,171.12,152.32ZM185,152v25.65a10.16,10.16,0,0,1-.24,2.68,3.68,3.68,0,0,1-.8,1.36h.48a1.16,1.16,0,0,0,1.12-.8,6.87,6.87,0,0,0,.35-2.54V152.63a17.51,17.51,0,0,0-.26-3.52,1.25,1.25,0,0,0-1.27-1.14h-.42a2.49,2.49,0,0,1,.83,1.37A12.16,12.16,0,0,1,185,152Z" transform="translate(-5 -5)"/><path class="cls-2" d="M206.34,176.71l-1.61-7.41h-6.82l-.95,4.4a16.11,16.11,0,0,0-.37,3.5,7.16,7.16,0,0,0,.61,3.05,2.07,2.07,0,0,0,1.71,1.4v1.42h-6.67v-1.42q2.23-.6,3.6-6.91l5-22.94a4.15,4.15,0,0,0-.82-1.64,2.32,2.32,0,0,0-1.27-.58v-1.27l3.46-2.12h1.33l6.67,30.57a12.75,12.75,0,0,0,1.15,3.51,3.54,3.54,0,0,0,1.76,1.38v1.42h-8.56v-1.42a4,4,0,0,0,1.66-.62,1.91,1.91,0,0,0,.56-1.61A11.74,11.74,0,0,0,206.34,176.71Zm-12.56,4.94h2.76a5.36,5.36,0,0,1-.9-3.18c0-.37,0-.65,0-.86a19.84,19.84,0,0,1-.79,2.2A8.77,8.77,0,0,1,193.78,181.65Zm4.48-14h6.11l-3.07-14Zm9.39,8.1-5.14-23.43a10,10,0,0,0-.78-2.5,1.24,1.24,0,0,0-1.11-.74,1.76,1.76,0,0,0-.67.11,3,3,0,0,1,1,1.37,15.43,15.43,0,0,1,.67,2.36l5.1,23.42a15.35,15.35,0,0,1,.48,3.24,2.87,2.87,0,0,1-.16,1.09,7.24,7.24,0,0,1-.64,1h.32a1.12,1.12,0,0,0,1-.65,3,3,0,0,0,.37-1.52A19.4,19.4,0,0,0,207.65,175.75Z" transform="translate(-5 -5)"/><path class="cls-2" d="M224.26,183.07h-10v-1.42a5.09,5.09,0,0,0,2.07-.4,1.83,1.83,0,0,0,.93-1.26,11.36,11.36,0,0,0,.26-2.84V153a16.26,16.26,0,0,0-.22-3.08,2.07,2.07,0,0,0-.89-1.43,4.75,4.75,0,0,0-2.15-.49v-1.42h11.37a5.68,5.68,0,0,1,3.75,1.33,8.12,8.12,0,0,1,2.42,3.55,13.77,13.77,0,0,1,.82,4.77,14.22,14.22,0,0,1-.38,3.28,11.46,11.46,0,0,1-1.08,2.88,8.31,8.31,0,0,1-1.71,2.22,5.88,5.88,0,0,1-2.32,1.31q1,1.79,2.45,5l1.42,3,.29.59c.11.23.26.53.45.89.46,1,.85,1.82,1.16,2.47s.63,1.23,1,1.75a7.24,7.24,0,0,0,.91,1.25,3.55,3.55,0,0,0,.95.74v1.42H233a2.58,2.58,0,0,1-1.74-.73,8.19,8.19,0,0,1-1.58-2.09c-.5-.89-1.07-2.08-1.72-3.54l-2-4.61c-.93-2.18-1.62-3.68-2.08-4.52s-.85-1.25-1.19-1.25h-1.6v11a10.7,10.7,0,0,0,.24,2.56,2,2,0,0,0,1,1.35,4.44,4.44,0,0,0,1,.34,3.44,3.44,0,0,0,.9.1ZM218,152.76v25.55c0,1.62-.33,2.74-1,3.34q1.89-.08,1.89-2.61V152.92a28.08,28.08,0,0,0-.12-3,2.71,2.71,0,0,0-.56-1.51,1.55,1.55,0,0,0-1.35-.42,2.59,2.59,0,0,1,.94,1.57A18.25,18.25,0,0,1,218,152.76Zm3.09.47V164.9h2.34a4.57,4.57,0,0,0,2.33-.68,4.84,4.84,0,0,0,1.75-1.73,12.29,12.29,0,0,0,1.18-6.08q0-4.84-1.83-7.12a3.25,3.25,0,0,0-1.36-1.06,5.36,5.36,0,0,0-1.8-.26,2.4,2.4,0,0,0-1.68.53,2.7,2.7,0,0,0-.74,1.61A18.74,18.74,0,0,0,221.09,153.23Zm3.77,13.1h-1.19a13.6,13.6,0,0,1,1.21,2.09c.45.93,1,2.19,1.72,3.78s1.39,3.2,2.09,4.84a20.57,20.57,0,0,0,1.78,3.38,4.94,4.94,0,0,0,1.46,1.52,3.33,3.33,0,0,0,1.35.38,9,9,0,0,1-1.71-2.13,32.62,32.62,0,0,1-1.77-3.45c-.63-1.38-1.27-2.85-1.94-4.38s-1.36-3-2.07-4.35c-.09-.24-.21-.51-.35-.82A3.62,3.62,0,0,0,224.86,166.33Zm1.26-1.56a4.33,4.33,0,0,0,3-2.59,13.56,13.56,0,0,0,1-5.82,14.5,14.5,0,0,0-.92-5.68,4,4,0,0,0-2.63-2.55,7.19,7.19,0,0,1,1.94,3.19,18,18,0,0,1,.64,5.35,14.13,14.13,0,0,1-.75,5.28A6.54,6.54,0,0,1,226.12,164.77Z" transform="translate(-5 -5)"/><path class="cls-2" d="M249.13,183.07H237.71v-1.42a4.5,4.5,0,0,0,1.81-.4,1.86,1.86,0,0,0,.86-1.2,10,10,0,0,0,.25-2.59V151.41a3.61,3.61,0,0,0-.69-2.58,3.78,3.78,0,0,0-2.23-.86v-1.42h11.9a7.31,7.31,0,0,1,4.27,1.37,11.58,11.58,0,0,1,3.36,3.87,22,22,0,0,1,2.16,5.92,33.49,33.49,0,0,1,.77,7.35,30.62,30.62,0,0,1-.79,7.16,19.93,19.93,0,0,1-2.25,5.73,11.61,11.61,0,0,1-3.53,3.78A8,8,0,0,1,249.13,183.07Zm-7.07-5.46V153.69a20.15,20.15,0,0,0-.32-4.33,1.55,1.55,0,0,0-1.64-1.28,2.68,2.68,0,0,1,.81,1.41,12.31,12.31,0,0,1,.2,2.57V177c0,1.07,0,1.9-.1,2.51a4.9,4.9,0,0,1-.31,1.37,2,2,0,0,1-.6.8,1.54,1.54,0,0,0,1.53-.94A8.23,8.23,0,0,0,242.06,177.61Zm2.2-22.16v20.89a22.73,22.73,0,0,0,.17,3.28,2.35,2.35,0,0,0,.83,1.53,3.49,3.49,0,0,0,2.1.5,6.51,6.51,0,0,0,2.81-.58,6.81,6.81,0,0,0,2.36-2,14,14,0,0,0,2.08-3.69,20,20,0,0,0,1.08-4.51,41.84,41.84,0,0,0,.34-5.63q0-9.24-3-13.85a7.54,7.54,0,0,0-2.65-2.61,7.15,7.15,0,0,0-3.43-.78,2.3,2.3,0,0,0-1.91.71,3.8,3.8,0,0,0-.66,2C244.3,151.62,244.26,153.19,244.26,155.45Zm6.73,26.2a5.39,5.39,0,0,0,3.31-2.28,14.86,14.86,0,0,0,2.33-5.51,37.1,37.1,0,0,0,.86-8.54,48.2,48.2,0,0,0-.41-6.53,26.33,26.33,0,0,0-1.21-5.16,10.91,10.91,0,0,0-1.93-3.54,5.09,5.09,0,0,0-1.38-1.21,8.31,8.31,0,0,0-1.57-.7q5.52,3.9,5.52,17.29a38.69,38.69,0,0,1-.59,7.12A17.75,17.75,0,0,1,254.1,178,11.38,11.38,0,0,1,251,181.65Z" transform="translate(-5 -5)"/><path class="cls-2" d="M285.28,146.55h6.48V148a6.92,6.92,0,0,0-1.85,2.88,34.73,34.73,0,0,0-1.53,5.77l-5.26,27.15h-.82l-5.55-28.47-5.52,28.47h-.76L265,155.3c-.49-2.54-.83-4.2-1-5a4.62,4.62,0,0,0-.76-1.76,1.71,1.71,0,0,0-1.39-.57v-1.42h8.48V148l-.15,0h-.19c-1.3,0-1.95.71-1.95,2.12a23,23,0,0,0,.46,3.65l3.88,20.07,4-20.48a24,24,0,0,0-.69-3.15,4.87,4.87,0,0,0-.7-1.51,1.5,1.5,0,0,0-.62-.51,8.9,8.9,0,0,0-1.06-.14v-1.42H282V148a3.45,3.45,0,0,0-1.64.42c-.4.24-.6.76-.6,1.55a28.76,28.76,0,0,0,.68,4.61l3.75,19.21,3.06-15.87c.2-.94.36-1.84.49-2.72a16.52,16.52,0,0,0,.19-2.41,7.1,7.1,0,0,0-.65-3.46,2.63,2.63,0,0,0-2-1.33Zm-20.21,6.73,5.6,29c.07-.25.13-.48.18-.68s.11-.45.16-.75a5,5,0,0,0,.08-.79,9.26,9.26,0,0,0-.25-2.07l-4.77-24.75q-.49-2.61-.78-3.63a3.13,3.13,0,0,0-.69-1.39,1.34,1.34,0,0,0-1.16-.29,5,5,0,0,1,.85,1.8Q264.62,151,265.07,153.28Zm11.71-.42,5.72,29.31a10.15,10.15,0,0,0,.42-2.49,13.21,13.21,0,0,0-.29-2.07l-5-25.5c-.26-1.27-.46-2.15-.6-2.61a2.53,2.53,0,0,0-.61-1.1,1.73,1.73,0,0,0-1.21-.43A14.68,14.68,0,0,1,276.78,152.86ZM289.9,148h-2.85a4.37,4.37,0,0,1,1,1.75,10.29,10.29,0,0,1,.31,2.39,19.75,19.75,0,0,1,.68-2.35A7.68,7.68,0,0,1,289.9,148Z" transform="translate(-5 -5)"/><path class="cls-2" d="M293.42,164.67a39.09,39.09,0,0,1,.24-4.43,33.53,33.53,0,0,1,.72-4,23.11,23.11,0,0,1,1.2-3.55,17.49,17.49,0,0,1,1.59-2.93,10.58,10.58,0,0,1,2-2.25,7.07,7.07,0,0,1,2.34-1.28,8.77,8.77,0,0,1,2.7-.4,7.32,7.32,0,0,1,4.43,1.47,12.1,12.1,0,0,1,3.4,4.09,23.19,23.19,0,0,1,2.16,6,33.38,33.38,0,0,1,.75,7.19,33,33,0,0,1-.83,7.57,22.23,22.23,0,0,1-2.35,6.11,12.55,12.55,0,0,1-3.57,4,7.48,7.48,0,0,1-4.4,1.43,6.89,6.89,0,0,1-4.15-1.41,11.67,11.67,0,0,1-3.32-3.94,22.5,22.5,0,0,1-2.16-6.09A36.3,36.3,0,0,1,293.42,164.67Zm5.34-15.95a17.45,17.45,0,0,0-3.63,6.75,32.15,32.15,0,0,0-1.24,9.25,35,35,0,0,0,.81,7.81,19.66,19.66,0,0,0,2.38,6.05,11.43,11.43,0,0,0,3.89,3.9,17.94,17.94,0,0,1-4.5-7.12,32.37,32.37,0,0,1-1.67-11.11,36.55,36.55,0,0,1,.44-5.92,26.29,26.29,0,0,1,1.33-5A32.3,32.3,0,0,1,298.76,148.72Zm-1.35,13.2a60.49,60.49,0,0,0,.52,8.29,33.11,33.11,0,0,0,1.48,6.51,12.25,12.25,0,0,0,2.29,4.17,3.8,3.8,0,0,0,2.84,1.43,3.74,3.74,0,0,0,2.46-1,8.42,8.42,0,0,0,2-3,20.8,20.8,0,0,0,1.36-4.93,42.88,42.88,0,0,0,.48-6.83,51.81,51.81,0,0,0-.55-7.85,29,29,0,0,0-1.55-6.14,11.72,11.72,0,0,0-2.32-3.91,4,4,0,0,0-2.88-1.38,3.64,3.64,0,0,0-2.48,1,8.14,8.14,0,0,0-2,3,21.25,21.25,0,0,0-1.27,4.62A36.56,36.56,0,0,0,297.41,161.92Zm8.88-14.26a12.83,12.83,0,0,1,2.77,4.28,27.8,27.8,0,0,1,1.72,6.54,56.66,56.66,0,0,1,.58,8.36,37.26,37.26,0,0,1-.66,7.5,23.44,23.44,0,0,1-1.85,5.6,14.33,14.33,0,0,0,1.95-3.63,21.77,21.77,0,0,0,1.12-4.61,42.37,42.37,0,0,0,.36-5.81,46.85,46.85,0,0,0-.72-8.52,22,22,0,0,0-2.07-6.43A6.65,6.65,0,0,0,306.29,147.66Z" transform="translate(-5 -5)"/><path class="cls-2" d="M327,183.07H317v-1.42a5.18,5.18,0,0,0,2.08-.4A1.85,1.85,0,0,0,320,180a11.36,11.36,0,0,0,.26-2.84V153a15.46,15.46,0,0,0-.22-3.08,2.1,2.1,0,0,0-.88-1.43A4.83,4.83,0,0,0,317,148v-1.42h11.37a5.68,5.68,0,0,1,3.75,1.33,8.12,8.12,0,0,1,2.42,3.55,13.77,13.77,0,0,1,.82,4.77,14.22,14.22,0,0,1-.38,3.28,11.46,11.46,0,0,1-1.08,2.88,8.31,8.31,0,0,1-1.71,2.22,5.81,5.81,0,0,1-2.32,1.31q1,1.79,2.45,5l1.42,3,.29.59c.12.23.26.53.45.89.46,1,.85,1.82,1.16,2.47s.64,1.23.95,1.75a7.24,7.24,0,0,0,.91,1.25,3.55,3.55,0,0,0,1,.74v1.42H335.7a2.58,2.58,0,0,1-1.74-.73,8.19,8.19,0,0,1-1.58-2.09c-.5-.89-1.07-2.08-1.72-3.54l-2-4.61c-.94-2.18-1.63-3.68-2.09-4.52s-.85-1.25-1.18-1.25h-1.6v11a10.78,10.78,0,0,0,.23,2.56,2,2,0,0,0,1,1.35,4.44,4.44,0,0,0,1,.34,3.47,3.47,0,0,0,.91.1Zm-6.27-30.31v25.55c0,1.62-.33,2.74-1,3.34q1.89-.08,1.89-2.61V152.92a28.08,28.08,0,0,0-.12-3,2.71,2.71,0,0,0-.56-1.51,1.54,1.54,0,0,0-1.35-.42,2.59,2.59,0,0,1,.94,1.57A18.25,18.25,0,0,1,320.68,152.76Zm3.1.47V164.9h2.33a4.54,4.54,0,0,0,2.33-.68,4.84,4.84,0,0,0,1.75-1.73,12.29,12.29,0,0,0,1.18-6.08q0-4.84-1.83-7.12a3.19,3.19,0,0,0-1.36-1.06,5.36,5.36,0,0,0-1.8-.26,2.36,2.36,0,0,0-1.67.53,2.76,2.76,0,0,0-.75,1.61A20.16,20.16,0,0,0,323.78,153.23Zm3.76,13.1h-1.18a14.61,14.61,0,0,1,1.2,2.09c.45.93,1,2.19,1.72,3.78s1.39,3.2,2.09,4.84a19.75,19.75,0,0,0,1.79,3.38,4.82,4.82,0,0,0,1.45,1.52,3.33,3.33,0,0,0,1.35.38,9,9,0,0,1-1.71-2.13,31,31,0,0,1-1.76-3.45c-.63-1.38-1.28-2.85-1.95-4.38s-1.36-3-2.07-4.35c-.09-.24-.21-.51-.35-.82A3.34,3.34,0,0,0,327.54,166.33Zm1.26-1.56a4.33,4.33,0,0,0,3-2.59,13.56,13.56,0,0,0,1-5.82,14.5,14.5,0,0,0-.92-5.68,4,4,0,0,0-2.63-2.55,7.1,7.1,0,0,1,1.94,3.19,18,18,0,0,1,.64,5.35,14.13,14.13,0,0,1-.75,5.28A6.54,6.54,0,0,1,328.8,164.77Z" transform="translate(-5 -5)"/><path class="cls-2" d="M352,148v-1.42h8.61V148a5.17,5.17,0,0,0-2,1,13,13,0,0,0-2,2.05q-1,1.26-2.22,3.18L351,159.75l7.64,17.16c.56,1.28,1,2.21,1.35,2.8a5.07,5.07,0,0,0,1,1.33,2.66,2.66,0,0,0,1.22.61v1.42h-9.68v-1.42c1.53,0,2.3-.62,2.3-1.86a4.06,4.06,0,0,0-.23-1.34,16,16,0,0,0-.62-1.54l-5.7-12.81-1.8,2.9v9.91a11.17,11.17,0,0,0,.35,3.24,1.67,1.67,0,0,0,1.27,1.29l.79.12.54.09v1.42h-9.83v-1.42H340a2.73,2.73,0,0,0,1.87-.54,2.59,2.59,0,0,0,.78-1.57,16.58,16.58,0,0,0,.17-2.73V152.48a12.78,12.78,0,0,0-.21-2.66,2.2,2.2,0,0,0-.92-1.38,3.9,3.9,0,0,0-2.14-.47v-1.42h9.83V148h-.2a2.3,2.3,0,0,0-2.22,1,7.08,7.08,0,0,0-.53,3.24v12.89l5.85-9.4a19.73,19.73,0,0,0,1.47-2.78,6,6,0,0,0,.5-2.29,3.53,3.53,0,0,0-.45-1.89,1.45,1.45,0,0,0-1.29-.73Zm-7.73,29.18V152.68a13.31,13.31,0,0,0-.34-3.79,1.53,1.53,0,0,0-1.67-.92,2.51,2.51,0,0,1,.9,1.4,21.65,21.65,0,0,1,.19,3.75v24.44a10.71,10.71,0,0,1-.24,2.74,2.54,2.54,0,0,1-1,1.35h.36a1.46,1.46,0,0,0,1.25-.5,2.69,2.69,0,0,0,.45-1.38C344.24,179.2,344.26,178.32,344.26,177.15Zm10.88-1.56-5.84-13.15-.64,1.06,5.43,12.43a22.06,22.06,0,0,1,.91,2.23,5.3,5.3,0,0,1,.3,1.73,2.28,2.28,0,0,1-.71,1.76H355a1.07,1.07,0,0,0,.93-.62,2.84,2.84,0,0,0,.36-1.45A10.58,10.58,0,0,0,355.14,175.59ZM357.47,148h-3.38a3.93,3.93,0,0,1,.68,2.23,6.48,6.48,0,0,1-.22,1.6c.65-1.07,1.17-1.86,1.54-2.39A7.21,7.21,0,0,1,357.47,148Z" transform="translate(-5 -5)"/><path class="cls-2" d="M195.4,214.05V322.62q0,6.31.28,9.42a14.79,14.79,0,0,0,1.32,5.25,6.87,6.87,0,0,0,3.55,3.24,29.58,29.58,0,0,0,7.11,1.86v5.1H167.17v-5.1a19.59,19.59,0,0,0,7.46-1.86,8.12,8.12,0,0,0,3.66-4.45,25.07,25.07,0,0,0,1.15-8.54v-79.8q0-7.25-3-9.84t-9.27-3.34v-6.77q9.69-.66,15.16-4a29.09,29.09,0,0,0,9.37-9.7Zm-13.73,36.29v72.84q0,10-1.19,13.27a13.43,13.43,0,0,1-4.66,5.94q6.75-.37,8.6-4.27t1.85-12.06V247.18q0-7.52-2.41-11.37c-1.6-2.56-3.7-3.85-6.3-3.85a10.39,10.39,0,0,0-2.41.33c-.9.22-1.52.35-1.84.41q5.35,1.59,6.86,5.62T181.67,250.34Z" transform="translate(-5 -5)"/><path class="cls-2" d="M221,283.09q0-21.43,4-37t11.53-23.8q7.53-8.25,17.43-8.26a22.5,22.5,0,0,1,14,4.64q6.09,4.65,10.45,13.6A82.23,82.23,0,0,1,285,253.82a165.07,165.07,0,0,1,2.23,28.53q0,20.79-4.08,36.14T271.6,341.93Q264.12,350,254,350a22,22,0,0,1-13.7-4.73q-6.17-4.74-10.49-13.64a82.45,82.45,0,0,1-6.55-21.12A153.83,153.83,0,0,1,221,283.09Zm22.16-62.54a35.79,35.79,0,0,0-11.15,13.27,73.55,73.55,0,0,0-6.55,20.78,167.15,167.15,0,0,0-2.16,28.68,170.14,170.14,0,0,0,1.22,21.16,94.42,94.42,0,0,0,3.73,17.35,51.45,51.45,0,0,0,6.17,13.08,38.23,38.23,0,0,0,8.74,9.19q-15.25-22.63-15.26-61,0-20.41,3.77-35.95A77.65,77.65,0,0,1,243.2,220.55ZM239,281a356.31,356.31,0,0,0,1.47,36q1.45,14,4.8,20.92t8.85,7q5.58,0,9-7t5-21a328,328,0,0,0,1.56-35.3q0-32.11-3.76-47.19t-12.26-15.08q-7.39,0-11,15.4T239,281Zm22.86-61a33.93,33.93,0,0,1,6.06,11.83,92.18,92.18,0,0,1,3.11,18.75Q272,262.21,272,281q0,17.82-.76,29.37a113,113,0,0,1-2.72,19.4A44.74,44.74,0,0,1,263.13,343q7.81-7.05,10.84-21.07t3-38.42q0-13.63-.73-23.38a116.16,116.16,0,0,0-2.54-17.49,57.58,57.58,0,0,0-4.67-13.27A31.82,31.82,0,0,0,261.88,220Z" transform="translate(-5 -5)"/><path class="cls-2" d="M293.8,283.09q0-21.43,4-37t11.53-23.8q7.52-8.25,17.42-8.26a22.48,22.48,0,0,1,14,4.64q6.11,4.65,10.46,13.6a82.24,82.24,0,0,1,6.58,21.53A164.09,164.09,0,0,1,360,282.35q0,20.79-4.08,36.14t-11.56,23.44q-7.5,8.07-17.6,8.07a22,22,0,0,1-13.7-4.73q-6.15-4.74-10.48-13.64A82.06,82.06,0,0,1,296,310.51,152.91,152.91,0,0,1,293.8,283.09ZM316,220.55a35.6,35.6,0,0,0-11.15,13.27,73.23,73.23,0,0,0-6.55,20.78,167.15,167.15,0,0,0-2.16,28.68,170.24,170.24,0,0,0,1.21,21.16A95.26,95.26,0,0,0,301,321.79a51.79,51.79,0,0,0,6.17,13.08,38.27,38.27,0,0,0,8.75,9.19q-15.27-22.63-15.26-61,0-20.41,3.76-35.95A77.66,77.66,0,0,1,316,220.55ZM311.78,281a356.74,356.74,0,0,0,1.46,36q1.47,14,4.81,20.92t8.85,7q5.58,0,9-7t5-21a325.07,325.07,0,0,0,1.57-35.3q0-32.11-3.76-47.19t-12.27-15.08q-7.38,0-11.05,15.4T311.78,281Zm22.85-61a33.78,33.78,0,0,1,6.07,11.83,92.27,92.27,0,0,1,3.1,18.75q.93,11.64.94,30.39,0,17.82-.77,29.37a113,113,0,0,1-2.72,19.4A45,45,0,0,1,335.89,343q7.8-7.05,10.84-21.07t3-38.42q0-13.63-.74-23.38a113.66,113.66,0,0,0-2.54-17.49,57.11,57.11,0,0,0-4.67-13.27A31.65,31.65,0,0,0,334.63,220Z" transform="translate(-5 -5)"/></g></svg>